<svg xmlns="http://www.w3.org/2000/svg" xmlns:xlink="http://www.w3.org/1999/xlink" width="23.475" height="46.95" viewBox="0 0 23.475 46.95">
  <defs>
    <clipPath id="clip-path">
      <rect id="Rectangle_115" data-name="Rectangle 115" width="23.475" height="46.95" fill="none"/>
    </clipPath>
    <clipPath id="clip-path-2">
      <rect id="Rectangle_114" data-name="Rectangle 114" width="23.475" height="46.95" transform="translate(0 0)" fill="none"/>
    </clipPath>
  </defs>
  <g id="Group_238" data-name="Group 238" transform="translate(-2012 -4567)">
    <g id="Group_230" data-name="Group 230" transform="translate(2012 4567)">
      <g id="Group_229" data-name="Group 229" clip-path="url(#clip-path)">
        <g id="Group_228" data-name="Group 228">
          <g id="Group_227" data-name="Group 227" clip-path="url(#clip-path-2)">
            <g id="Group_226" data-name="Group 226" opacity="0.3">
              <g id="Group_225" data-name="Group 225">
                <g id="Group_224" data-name="Group 224" clip-path="url(#clip-path)">
                  <path id="Path_87" data-name="Path 87" d="M21.915,19.709,3.766,1.56A5.309,5.309,0,0,0,0,0V46.95a5.309,5.309,0,0,0,3.766-1.56L21.915,27.241a5.326,5.326,0,0,0,0-7.532" fill="black"/>
                  <path id="Path_88" data-name="Path 88" d="M8.717,14.888a1.431,1.431,0,0,1,.724.13,1.546,1.546,0,0,1,.588.394l6.884,6.817a2.267,2.267,0,0,1,.459,1.311,2.045,2.045,0,0,1-.459,1.18l-6.884,6.816a1.769,1.769,0,0,1-1.312.525,1.729,1.729,0,0,1-1.243-.525,1.676,1.676,0,0,1-.525-1.244,1.794,1.794,0,0,1,.525-1.246L13.11,23.54,7.474,17.9a1.954,1.954,0,0,1-.525-1.312,1.77,1.77,0,0,1,.525-1.179,1.351,1.351,0,0,1,.654-.394.981.981,0,0,1,.589-.13" fill="#fff" fill-rule="evenodd"/>
                </g>
              </g>
            </g>
          </g>
        </g>
      </g>
    </g>
  </g>
</svg>
