<svg xmlns="http://www.w3.org/2000/svg" xmlns:xlink="http://www.w3.org/1999/xlink" width="16.453" height="16.453" viewBox="0 0 16.453 16.453">
  <defs>
    <clipPath id="clip-path">
      <rect id="Rectangle_77" data-name="Rectangle 77" width="16.453" height="16.453" transform="translate(0 0)" fill="#fcb813"/>
    </clipPath>
  </defs>
  <g id="Group_167" data-name="Group 167" clip-path="url(#clip-path)">
    <path id="Path_49" data-name="Path 49" d="M14.744,10.006a9.416,9.416,0,0,1-1.693-.351,1.931,1.931,0,0,0-1.935.477l-1.052,1.051A12.124,12.124,0,0,1,5.27,6.389L6.322,5.338A1.932,1.932,0,0,0,6.8,3.4a9.442,9.442,0,0,1-.351-1.693A1.928,1.928,0,0,0,4.528,0H1.933A1.935,1.935,0,0,0,0,1.938C0,2,0,2.056.008,2.116A15.745,15.745,0,0,0,1.475,7.459a15.861,15.861,0,0,0,3.114,4.406,15.863,15.863,0,0,0,4.406,3.114,15.74,15.74,0,0,0,5.343,1.467,1.935,1.935,0,0,0,2.115-1.925V11.926a1.927,1.927,0,0,0-1.709-1.92" transform="translate(0 0)" fill="#fcb813"/>
  </g>
</svg>
