<?xml version="1.0" encoding="UTF-8"?>
<svg id="Layer_2" data-name="Layer 2" xmlns="http://www.w3.org/2000/svg" viewBox="0 0 379.01 379.21">
  <defs>
    <style>
      .cls-1 {
        fill: #fff;
      }
    </style>
  </defs>
  <g id="_Ï_h_1" data-name="¹Ï¼h_1">
    <g>
      <path class="cls-1" d="m212.32,0c8.55,2.22,17.2,4.14,25.64,6.72,27.5,8.41,51.99,22.34,73.56,41.32,22.92,20.17,40.67,44.18,52.92,72.19,6.4,14.62,10.85,29.83,13.81,45.5.16.83.5,1.63.75,2.45v2.22c-.09.08-.23.15-.27.25-2.3,6.36-6.02,9.46-10.98,9.14-6.03-.39-9.58-3.84-10.93-11.06-4.95-26.58-15.08-50.99-30.9-72.92-20.7-28.7-47.23-50.29-80.21-63.29-11.5-4.54-23.74-7.26-35.72-10.53-6.85-1.87-10.4-4.69-11-9.8-.63-5.33,1.78-8.94,8.13-12.19,1.73,0,3.46,0,5.19,0Z"/>
      <path class="cls-1" d="m117.65,158.81c24.57,43.59,58.09,77.4,101.67,101.58,1.29-1.23,2.26-2.14,3.21-3.06,8.94-8.69,17.54-17.76,26.88-25.99,13.65-12.03,32.99-12.1,46.15.42,17.52,16.67,34.58,33.85,51.16,51.45,12.12,12.88,11.97,32.41.86,46.18-2.4,2.97-5,5.78-7.66,8.53-7.55,7.8-15.13,15.59-22.79,23.28-14.42,14.48-32.05,19.43-52.08,17.67-25.27-2.22-48.42-11.07-70.87-22.15-40.83-20.16-76.8-46.94-107.77-80.27-31.92-34.35-58.36-72.35-75.05-116.57C5.15,143.41.51,126.6.03,108.86c-.48-17.62,4-33.49,16.63-46.35,10.03-10.21,19.7-20.88,30.48-30.24,16.63-14.44,34.82-14.28,50.88.81,16.99,15.96,33.32,32.68,49.2,49.74,12.06,12.96,11.93,32.37.27,45.66-8.12,9.27-17.13,17.76-25.76,26.58-1.11,1.14-2.35,2.16-4.1,3.76Zm153.13,198.95c13.82.07,23.97-4.06,32.27-12.83,7.38-7.79,15-15.37,22.48-23.06,1.72-1.77,3.47-3.53,4.96-5.48,5.07-6.61,4.88-13.5-.46-19.91-1.26-1.51-2.63-2.94-4.03-4.34-8.8-8.83-17.62-17.64-26.44-26.45-5.5-5.5-10.93-11.07-16.53-16.46-6.84-6.59-14.23-6.67-21.39-.42-1.21,1.05-2.34,2.19-3.48,3.32-8.39,8.37-16.73,16.79-25.17,25.11-6.27,6.19-13.09,7.34-20.6,3.52-5.16-2.63-10.35-5.23-15.32-8.2-22.32-13.33-41.75-30.19-59.3-49.27-15.93-17.32-30.37-35.69-39.95-57.46-3.81-8.65-2.67-15.25,4.08-21.83,2.12-2.07,4.35-4.03,6.44-6.12,7.25-7.24,14.66-14.33,21.62-21.82,6.25-6.72,6.08-13.52.17-20.55-.95-1.13-1.97-2.21-3.02-3.26-13.95-13.98-27.88-27.98-41.86-41.93-8.97-8.96-16.93-8.99-25.95-.08-8.52,8.41-17.22,16.67-25.29,25.49-3.91,4.27-7.51,9.32-9.62,14.66-4.5,11.39-3.16,23.34-.75,35.02,3.73,18.1,10.58,35.13,18.8,51.61,17.52,35.11,40.84,66.05,68.53,93.69,35.3,35.24,75.98,62.33,122.97,79.52,12.45,4.56,25.38,7.1,36.82,7.54Z"/>
      <path class="cls-1" d="m195.9,79.6c.03-6.9,6.01-11.96,13.05-10.54,44.38,8.95,75.71,34.23,93.55,75.81,3.32,7.74,5.06,16.19,7.16,24.41,1.61,6.32-1.91,11.98-7.82,13.47-5.73,1.44-11.28-2.15-13.17-8.44-2.44-8.12-4.06-16.63-7.57-24.27-14.89-32.47-40.14-52.31-75.16-59.61-6.62-1.38-10.06-5.12-10.04-10.84Z"/>
    </g>
  </g>
</svg>